<svg xmlns="http://www.w3.org/2000/svg" viewBox="0 0 226.97 54.56">
  <defs>
    <style>
      .cls-1 {
        fill: #fff;
        fill-rule: evenodd;
      }
    </style>
  </defs>
  <g id="Capa_2" data-name="Capa 2">
    <g id="Capa_1-2" data-name="Capa 1">
      <g>
        <path class="cls-1" d="M17.59,41.21h0l-.16-.08c-1.14-.57-2-1.88-2.28-2,0,0-.57-.32-.57-.4a5.66,5.66,0,0,1-1,.08s-.24-.08-.24.08a1.65,1.65,0,0,0-.09.32h0l-.24.09s-.24-.09-.33.24a3.57,3.57,0,0,1-.4.73s0,.17-.25.33a1.38,1.38,0,0,0-.73.24s-.33.08-.24.57a1.29,1.29,0,0,1,.24.57,3,3,0,0,1,.08.57,1.11,1.11,0,0,0,.08.41.84.84,0,0,1,.08.33s-.24.32-.08.4c0,0,.17.25.82,0a1.63,1.63,0,0,1,.4-.08.24.24,0,0,0,.41-.08c.08-.08.08-.24.25-.24,0,0,.32-.25.48,0,0,0,.17-.09.25.4a.63.63,0,0,0,.24.33.91.91,0,0,1,.33-.08s.16-.17.16.16a1.25,1.25,0,0,0,.57.73s.08.49,1.06.09a1.51,1.51,0,0,0,.49-.41s-.24-.17.08-.41c0,0,.16.08.41-.65a1,1,0,0,0,.08-1.14.43.43,0,0,1,.08-.41.35.35,0,0,0,.08-.24v-.17h0l-.08-.32c-.08,0-.08-.08-.16-.08s.08.08.16.08ZM32.9,48.05h0l.16.08ZM11.08,35.92s-2.77.4-8,3.82A27.32,27.32,0,0,0,27.36,54.56h.09A27.11,27.11,0,0,0,52.94,36.81a11.19,11.19,0,0,1-1.8.33l-.08.4-.24.25c-.16.49-.25.49-.25.49l-.65.08-.65,1.06a.64.64,0,0,1-.41.16c-.24,0-.24-.41-.24-.41a2.08,2.08,0,0,0-.08-.89c-.08,0-.16-.08-.25-.08v-.74h-.16a28.51,28.51,0,0,1-7.9.08c-.24-.08-.24.09-.24.09a5,5,0,0,1-.57.73c-.17.24,0,.41,0,.57a3.94,3.94,0,0,1-.17,1.38c-.08.9-.65,1.06-.65,1.06a4.36,4.36,0,0,0-.81.57.25.25,0,0,0-.16.33,2.8,2.8,0,0,0,.24.49,1.49,1.49,0,0,1-.33,1.05,1.19,1.19,0,0,0-.4.74,18.2,18.2,0,0,1-.9,1.79l-.57,1.06a3.39,3.39,0,0,0-.57.89,1.89,1.89,0,0,0-.08.57.36.36,0,0,1-.24.33c-.17.08-.17.33-.17.33l.17.57c0,.4-.17.48-.17.48-.24-.16-2.36-2-1.55-2.28l.09-.4c0-.25-.25-.41-.25-.57s-.08-.41-.16-.57a.79.79,0,0,1-.08-.74,2.12,2.12,0,0,1,.32-.73l-.16-.57a3.33,3.33,0,0,1-.16-1.06,4.14,4.14,0,0,1,.16-.41,11.43,11.43,0,0,1-.24-2,1,1,0,0,0-.41-.41,3.1,3.1,0,0,0-.73-.32c-.25-.08-.41-.74-.41-.74a.83.83,0,0,0-.25-.48,1.11,1.11,0,0,0-.24-.41,1.11,1.11,0,0,0-.24-.41l-.41-.73c-.08-.08,0-.25,0-.25l.24-.24-.4-.41.65-1.38s-6.11-2.61-16.7-.08l-.16.08.41.24a.42.42,0,0,1-.09.41,2.36,2.36,0,0,1-.48.24s-.33.09-.25.25c0,0,.33.08.33.32,0,0-.08.25-.49.25,0,0-.25-.25-.41-.16a2,2,0,0,1-.57.08.85.85,0,0,1-.73-.25c0-.4-.25-.73-.16-1ZM53,17.92a2.84,2.84,0,0,1-1.31.73c-.16-1.3-2.19-4.81-2.19-4.81l-.25-.08-.08.17s-.08-.09-.24,0-.09-.09-.09-.09l-.08-.32a1.63,1.63,0,0,0-.4-.08c-.17,0-.17-.08-.17-.08l.57-.09.33-.08a.89.89,0,0,0-.41-.57s-.41-.16-.57-.24a1.14,1.14,0,0,1-.41-.08,1.26,1.26,0,0,1-.16-.33,2.94,2.94,0,0,0-.89,0s-.57-.08-.74.25a.54.54,0,0,0-.4.57.78.78,0,0,1-.09.57c-.08.08,0,.24-.32.4a2.83,2.83,0,0,0-.49.25,2.51,2.51,0,0,1,.16.57c0,.16.08.41.25.41h.4s.25-.25.33-.09.24.09.33.25c0,0,.08.41.32.49l.41-.08A2.43,2.43,0,0,0,47,14.9v-.08l.16-.16-.32-.33s-.16-.08-.08-.4c0,0,.08-.74.24-.74,0,0,.33-.08.25.08a.42.42,0,0,1-.09.41c-.08.16-.24.25-.08.57a1.26,1.26,0,0,0,.49.25.59.59,0,0,1,.41,0s.24.24.08.24l-.41.08s-.08-.08-.08.33c0,.16.16.24,0,.24a.28.28,0,0,1-.16-.08s-.16-.08-.08.25a.55.55,0,0,1,0,.4s-.33-.08-.41,0-.16.08-.16.49a1.31,1.31,0,0,0,0,.57s-.33,0-.33-.08l-.16-.33L46.18,16s-.08-.4-.25-.4h-.4s-.17-.17-.09.16a1.48,1.48,0,0,1,.09.41s.08.24-.09.24-.16-.08-.24.08c0,0-.24,0-.08.33a.55.55,0,0,0,.16.41c.25.08.08.08.08.08l-.57.08s-.08-.08-.24.08l-.08.41H43.9l.4.57.08.57a.18.18,0,0,1-.24.08h-.65c-.33.08-.08.73-.08.73l.08.9.57.24.32.08.58-.16a1.44,1.44,0,0,0,.4-.57l.17-.49c0-.16.24-.24.24-.24l.49-.08V19.3h.24l.08.33.25.16.24.24.41.25.41.08L47.81,20c0-.24-.49-.48-.49-.48a1.21,1.21,0,0,1-.25-.74c-.08.49.74.74.74.74a.55.55,0,0,1,.32.57c-.24.57.25.57.25.57l-.25.08a3,3,0,0,1-1.06.4,5.09,5.09,0,0,0-1-.08c-.74-.08-.9.41-.9.41-.16.24-.24.24-.24.24a3.52,3.52,0,0,0-.58-.08.53.53,0,0,0-.57.33c-.08.24-.16.24-.16.24-8.55,2.28-12.21,1.39-12.21,1.39l.24-.08.57-.09c.08-.08-.08-.4-.08-.4l.08-.25c.08-.24.24-.16.24-.16a.28.28,0,0,0,.17-.24.17.17,0,0,1,.24-.09l.41.17.41-.17.24-.24c.16-.24-.16-.33-.16-.33-.25-.08-.25-.08-.33-.08a.28.28,0,0,1-.16-.24.87.87,0,0,0,0-.49c.08-.24-.16-.16-.16-.16a.45.45,0,0,1-.25-.41c-.08-.24.33,0,.33,0H34c.65-.08.57-.24.57-.24a2.12,2.12,0,0,1,.41-.25s0-.08.24-.24-.16-.49-.16-.49-.41-.25-.57-.41-.49-.24-.49-.24c-.16-.08-.16-.57-.16-.57a1.38,1.38,0,0,0-.25-.74c-.16-.24-.57-.08-.57-.08-.4.33-.4.41-.4.41-.25.08-.25.08-.25-.08s.08-.33.08-.33-.16.41,0-.08-.16-.24-.16-.24a2.4,2.4,0,0,0-.89-.41c-.74-.16-.9-.08-.9-.08-.24,0-.24.16-.08.57a.53.53,0,0,1-.08.49.5.5,0,0,0-.08.57.88.88,0,0,0,.24.49c0,.16-.24.24-.24.24-.25.08-.33.57-.33.57-.24.24.08.41.08.41a1.63,1.63,0,0,1-.08.73c-.24.24-.24-.08-.24-.08a1.45,1.45,0,0,1,0-.65.51.51,0,0,0-.25-.57,1,1,0,0,0-.49,0,.58.58,0,0,1-.4-.25c-.25-.4-.41-.4-.41-.4a.39.39,0,0,0-.41.08h-.41v-.25c0-.24-.16-.16-.16-.16-.24-.08-.08-.49-.08-.49l.16-.24a2.44,2.44,0,0,1,.49-.65l.57-.57.25-.09c-.09.25.24.25.24.25.16.08.41-.08.41-.08l.16-.08.24-.09c.25,0,.25-.16.25-.16.08-.16-.08-.32-.08-.32l-.33-.33c-.08-.08.08-.16.08-.16l.41-.41c.16-.08.08-.49.08-.49l-.16-.57c-.08-.24.24-.16.24-.16h.41a4.93,4.93,0,0,1,.9.73.65.65,0,0,1,0,.57c-.25.41-.49.25-.49.25a2.44,2.44,0,0,0-.57.16c-.33.08.08.24.24.24a1.31,1.31,0,0,0,.57,0,.39.39,0,0,1,.25.08l.48.57a2.58,2.58,0,0,0,1.06.09V16l.08-.08.33-.08a.18.18,0,0,0,.08-.24l-.32-.25-.25-.41h.65c.49-.24.17-.57.17-.57a2,2,0,0,0-.41-.4l-.41-.25c-.08-.08.08-.24.08-.24.25-.17.08-.33.08-.33-.08-.16-.48-.24-.48-.24-.25-.08-.25-.17-.25-.17l-.57-.32a.92.92,0,0,0-.57.08,1.14,1.14,0,0,1-.57,0c-.24-.16.08-.16.08-.16a.29.29,0,0,0,.17-.25c0-.16-.25-.08-.25-.08a1.63,1.63,0,0,0-.73.08.47.47,0,0,0-.49.33.89.89,0,0,1-.49,0c-.32,0-.49.49-.49.49-.08.24.25.57.25.57l.4.08c.09.16-.08.49-.08.49-.24.24-.4.08-.4.08a.6.6,0,0,0-.33-.16c-.16,0-.08-.09-.08-.09,0-.4-.08-.4-.08-.4,0-.17-.08-.25-.17-.41a.42.42,0,0,1,.09-.41,3.19,3.19,0,0,0,.24-.32c.08-.25-.24-.25-.24-.25-.33-.08-.49.17-.74.17s-.16.24-.16.24l.16.33-.16.16c-.24.08-.24.57-.24.57a.24.24,0,0,0,.24.32l.33.17c.08.16-.25.24-.25.24-.49.16-.24.33-.24.33s-.17.08-.33.08-.41-.25-.41-.25c-.16-.08-.4.09-.4.09l-.49.16a1.68,1.68,0,0,0-.74.08c-.24.08-.16.16-.16.16a2.22,2.22,0,0,0-1.22-.08v-.24c0-.08-.16-.08-.16-.08l-.41-.09a1.26,1.26,0,0,0-.81-.16.6.6,0,0,0-.49.25c-.25.08-.25-.09-.25-.09-.24-.32-.4-.24-.4-.24-.25,0-.25.08-.25.08l-.24.08a4.43,4.43,0,0,0-.74.41A1.54,1.54,0,0,1,19,15c-.17,0-.41-.25-.41-.25a1.24,1.24,0,0,0-.73.08,2.62,2.62,0,0,1-1.06-.08c-.49-.08-.57-.08-.57-.08-.17-.08-.49.08-.49.08h-.9c-.32.08-.73.73-.73.73-.08.17-.16.25-.25.41l-.32-.08a.33.33,0,0,0-.25.41c.09.24.41.24.41.24.16.08.08.41.08.41s-.57,0-.57,0a.55.55,0,0,0-.4.24c-.17.25.16.41.16.41h.57s.24-.08.08.16a1.44,1.44,0,0,1-.49.33,1.42,1.42,0,0,0-.57.24s-.16.08-.16.41c0,0,.08.08-.08.16,0,0-.25.33,0,.57,0,0,0,.17.73.17,0,0,.57.08.57.4l-.08.25c-1.47-.08-5.62.08-5.62.08l-.16-.08A3.72,3.72,0,0,0,7,20.12L7.09,20c.08-.24.4-.89.4-.89a3.16,3.16,0,0,1,.41-.49c.16-.24.73-.24.73-.24a.88.88,0,0,0,.65-.09,1,1,0,0,0,.09-.4c.08-.08.16-.25.24-.25s.73.08.73.08l-.24.41a2.49,2.49,0,0,0-.41.9c-.08.4.25.4.25.4s0,.25,0,.25c.08.81.48.32.48.32a.6.6,0,0,0,.33-.4c.08-.33.16-.57.16-.57a.35.35,0,0,0-.16-.33.59.59,0,0,1,0-.41.55.55,0,0,1,.24-.4c.41-.25,1.47-1,1.47-1,.08-.16.41-.16.41-.16v-.25c-.08-.16-.08-.32-.17-.4-.08-.33.09-.25.09-.25h.08c.4,0,.4-.16.4-.16.09-.16-.08-.41-.08-.41a2.66,2.66,0,0,0-.49-.24,3,3,0,0,0-1.3-.17,2.15,2.15,0,0,0-1.14.17,1.13,1.13,0,0,1-.89.08H8.8a6.45,6.45,0,0,0-.74.08c-.65,0-.65-.08-.65-.08C7,14.9,7,15.07,7,15.07l-.48.08c-.41,0-.33.08-.33.08v.24l-.57.17-.33.08-.08-.25c0-.24-.41,0-.41,0a.61.61,0,0,0-.4.41c-1.22,1.39-1.79,5.46-1.79,5.46a12.38,12.38,0,0,0-2,.4A27.3,27.3,0,0,1,53,17.92ZM32,9.85l.24.17a.36.36,0,0,0,.16.4,3.13,3.13,0,0,0,.74.09,1.16,1.16,0,0,1,.57,0,.78.78,0,0,1,.4.48l.25.49a4.14,4.14,0,0,1,.16.41.3.3,0,0,0,.08.33s0,.08.25.16c0,0,.32-.08.4.41l.09.57s-.33,0-.41.24a1,1,0,0,0,0,.57,1.45,1.45,0,0,0,.08.49s.24,0,.33.33a1.63,1.63,0,0,1,.08.4,2.08,2.08,0,0,0,.24.57.55.55,0,0,0,.57.41.53.53,0,0,1,.33.16.31.31,0,0,0,.4.17c.25-.09.09-.09.09-.09s.16-.08.24-.57a2.26,2.26,0,0,1,.24-.48,2.12,2.12,0,0,0,.09-.74.35.35,0,0,1,.32-.16,1.93,1.93,0,0,0,.57-.25s.25-.08.41-.65a.43.43,0,0,1,.41-.32c.16,0,.73-.08.73-.08a.65.65,0,0,0,.16-.41l.25-.33a.8.8,0,0,0-.17-.49L40.15,12a.62.62,0,0,1,.24-.32l.41-.41s.08-.49-.16-.49l-.33-.24.17-.25s.08-.41-.25-.41c0,0-.41-.08-.24-.16s.24-.41.24-.41L40,8.63s-.17-.32-.33-.24h-.32s0-.33-.09-.41-.08-.41-.73-.24h-.41a.69.69,0,0,0-.73-.08.77.77,0,0,1-.49,0,1.84,1.84,0,0,0-.57-.25,1.89,1.89,0,0,0-.57.08s-.32-.08-.24.17c0,0,0,.24.08.32l-.33.08a1.77,1.77,0,0,1-.49.08.81.81,0,0,0-.24-.08A.61.61,0,0,0,33.88,8s-.41.08-.49.25-.08.08-.08.24c0,0,0,.08-.25.16a.92.92,0,0,0-.48,0s-.17-.08-.09.17l.17.16.08.08a.18.18,0,0,1-.08.24l-.57.09a3.59,3.59,0,0,0-.41.16.16.16,0,0,0-.16.24c.16-.24.16,0,.49.08Zm-3.75,1.23L30.05,11s.41-.24.16-.32L30,10.59s-.16-.17,0-.25l.57-.08.24-.16V9.77l.49-.24L31.35,9a4.89,4.89,0,0,1,.74-.49S33,8.06,33.15,8c0,0,.32-.41,0-.41l-.57.17s-.25-.08-.25-.25a.88.88,0,0,0-.73-.08l-.73.08a3.24,3.24,0,0,0-.82.17.62.62,0,0,0-.32.24L29.64,8a3.75,3.75,0,0,0-.81.08s-.33-.08-.16.17a.55.55,0,0,0,.4.24h.66l.16.08a.11.11,0,0,1,0,.16,1.31,1.31,0,0,0-.57,0s-.25.25-.49.09c0,0-.41-.33-.65-.25a.64.64,0,0,0-.41.16s-.24.33-.08.49l.41.08a.9.9,0,0,0-.08.25s.08.08.4.08H29s.41-.08.41.16c0,0,0,.41-.24.41l-.66.24-.24.09H28c-.09-.09-.33.48.24.57Zm-6.35,1.3-.25.24c-.16.08-.08.41-.08.41s-.08.24-.24.33.24.24.24.24l.65.08a.28.28,0,0,0,.17-.24.4.4,0,0,1,.24-.08l.24.24a1.75,1.75,0,0,1,.33.08v.16a.24.24,0,0,0-.24.25s.48.16.65.24a2.1,2.1,0,0,0,.73,0c.41.08.41-.24.41-.24a.29.29,0,0,1,.41-.08l.4.08a.8.8,0,0,0,.65-.25.27.27,0,0,0-.08-.4c-.08-.08-.16-.25-.24-.33a.72.72,0,0,0-.25-.57c-.24-.24-.57,0-.57,0-.16,0-.08.49-.08.49h-.24c-.17,0-.25-.33-.25-.33a1,1,0,0,0-.49,0,.57.57,0,0,1-.48-.08l-.33-.24a1.25,1.25,0,0,0-.65.08l-.65-.08Zm25.57,3.34c-.08,0-.24.24-.24.24l.16.65s-.08,0,.08.09a1.32,1.32,0,0,0,.33.24v.57c-.17.16,0,.49,0,.49h.48a1.32,1.32,0,0,0,.33-.25l.24-.08-.16-.16s-.08,0-.08-.33a.85.85,0,0,0-.33-.48c-.16-.25-.24-.25-.24-.49a.47.47,0,0,0-.33-.49Zm-1,1.3a.48.48,0,0,0-.08.33,4,4,0,0,0,.25.4,1.87,1.87,0,0,0,.73,0c.41-.24.08-.4.08-.4.08-.25-.33-.41-.33-.41a1.71,1.71,0,0,0-.48-.08L46.5,17ZM26.14,29.32l2.61.81a34.61,34.61,0,0,0,7.57,1.79s6,.66,10.83-.89a2.34,2.34,0,0,0,.25.65.36.36,0,0,1,.24.33v.4l.17.25.08.24a1.11,1.11,0,0,1,.24.41s.08.41-.08.57c0,0-.24-.16-.24.24a4.26,4.26,0,0,0-.17.9,29.52,29.52,0,0,1-9.61.65l-.4-.08s-.57-.41-1-.24c0,0-.25-.09-.08-.25s.08-.16.08-.16.08-.74-.41-.9l-.81-.24-.49-.08s-.25-.09-.41-.17c0,0,0-.08-.24-.24a1.78,1.78,0,0,0-.66-.25,1.54,1.54,0,0,0-.48.09,1.75,1.75,0,0,1-.41.08,1,1,0,0,1-.16-.25.34.34,0,0,0-.49-.24,2.67,2.67,0,0,0-1,.16,1.75,1.75,0,0,0-.57.57s.08.25-.08.25a1.59,1.59,0,0,0-.41-.09l-.41.09-.32-.25-.16-.41a2.29,2.29,0,0,1,.24-.65s.08-.49-.16-.49H28.5s-.4.17-.4-.08a.42.42,0,0,1,0-.57s.32-.4.24-.65c0,0-.16-.65-.73-.41,0,0-.33-.08-.33.25V31L27,31a.36.36,0,0,1-.25.08s-.4-.24-.48-.41l-.25-.57v-.81ZM31,25.57s6.43,1.06,11.32-.24c0,0,.08.73.08,1.22a4.46,4.46,0,0,0,.08,1.38s.41,1.14.9,1.23a33.92,33.92,0,0,1-12.95.08s-3.26-1-3.75-1.06a.47.47,0,0,1,.49-.33,2.17,2.17,0,0,0,.57-.08.56.56,0,0,1,.41-.24.7.7,0,0,1,.65.24s.41.57.57.82a.67.67,0,0,0,.65.32.88.88,0,0,0,.08-.73l-.24-.82-.17-.57S30.7,25.74,31,25.57Zm23.61-.49a8.05,8.05,0,0,1-1.87,1l.41-.41a13.33,13.33,0,0,0-.16-2.11,2.63,2.63,0,0,0-.25-.49c-.16-.25-.08-.33-.08-.33.16-.08.16-.16.16-.16a.41.41,0,0,0,0-.33,7.78,7.78,0,0,0,1.31-.73c.24,1.22.32,2.28.48,3.58ZM54,33.55a9.76,9.76,0,0,1-1.79.57,1.66,1.66,0,0,0,.17-1s.08.24-.09-.25a15.08,15.08,0,0,1-.08-1.63c.25-.57,1-1.79,1-1.79a13.83,13.83,0,0,0,1.47-.57A30.68,30.68,0,0,1,54,33.55c-.4,1.55.33-1.54,0,0ZM52.2,26.47c-.4.24-.57,0-.57,0a3.06,3.06,0,0,1-.24-.9,1,1,0,0,0-.25-.73,1.4,1.4,0,0,0-.4-.57,9.44,9.44,0,0,1-.17-1.06l.09-.16s.16-.08.16.24a1,1,0,0,0,.16.57.63.63,0,0,1,.25.41,2,2,0,0,1,.24.57,5.24,5.24,0,0,1,.16.73s-.08.41.17.57l.4.08v.25ZM48.7,20a.52.52,0,0,0-.08.33l.08.16.16-.24-.08-.41L48.7,20Zm-34.29.17.41-.41s.41-.33.17-.33-.41,0-.33-.24c0,0,.08-.24.24-.08a.63.63,0,0,0,.49.24A.88.88,0,0,0,16,19l.08-.57.17.08s-.08.08.08.24a1.77,1.77,0,0,0,.49.08,1.31,1.31,0,0,1,.73.08.53.53,0,0,1,.41.25s0,.08.24.16l.41.08s.08,0,.08.25a2.68,2.68,0,0,0,.08.57s.25.4.33.57a3.77,3.77,0,0,1,.16.4,16.64,16.64,0,0,0-4.81-1ZM.16,28.83s1.22-.57,1.63-.73v-.74l-.08-.08s-.16-.24-.08-.4l.16-.49a1.92,1.92,0,0,0-.08-.9v-.16c0-.16.08-.25.08-.41l.08-.57-.16-.08A10.33,10.33,0,0,1,.08,25,21.81,21.81,0,0,0,0,27.28c.08.49.08,1.06.16,1.55Zm6.11-2.69c0-.32-.16-.32-.16-.32-.41-.08-.41-.25-.41-.25-.24-.24,0-.4,0-.4.08-.25,0-.25-.08-.41s-.33-.08-.33-.08l.09-.25a.16.16,0,0,1,.16-.16l.49.16.08.08.08.41.16.16c.08,0,.08.33.08.33,0,.24.41,0,.41,0,.41-.24.16-.41.16-.57a.89.89,0,0,0-.24-.57c-.16-.08,0-.25,0-.25a.42.42,0,0,0,.08-.4c0-.17.08-.25.16-.25a1.11,1.11,0,0,0,.41-.24l.25-.25a1.4,1.4,0,0,1,.4-.08c-.08.41.17.41.17.41a.36.36,0,0,0,.48-.08c.17-.16.09-.49.09-.49H9a26.74,26.74,0,0,1,11,0c-.08.08,0,.41,0,.57a.6.6,0,0,1-.16.33c-.24.24,0,.57,0,.57a.62.62,0,0,1-.08.65c-.25.16-.16.73-.16.73.08.25.24.25.24.25l.24.65A36.31,36.31,0,0,0,6.35,27l-.08-.82Zm2-3.74a.64.64,0,0,0-.57.4h.32l.08.08.25-.08.08.17.24-.09a.81.81,0,0,0,.49-.4s.25-.33.08-.57a.29.29,0,0,1,.09-.41l-.09-.33L9,21l.08.16-.32-.08v.08l-.17.09-.08.16s.16.08.08.32a.19.19,0,0,1-.08.25s-.32,0-.24.24v.17ZM3.18,31h.24c.24.08-.08.57-.08.57,0,.24.41-.08.41-.08a.28.28,0,0,1,.32-.09.41.41,0,0,1,.41.09C5.38,31.35,5,31,5,31v-.57a39.46,39.46,0,0,1,16.37-2.12c.57.08.16.33.16.33s-.08.4-.08.4c-.08.25.24.49.41.57a2,2,0,0,1,.4.25c.41.57.57.57.57.57.57.16.41-.25.41-.25,0-.32-.57-.89-.57-.89a3,3,0,0,0-.41-.74l.17-.08.24.17c.41.89,1.38,1.54,1.38,1.79.09.4-.08.49-.08.49a.56.56,0,0,0,.41.57,3.36,3.36,0,0,0,1.63.81c.41.16.57.08.57.08.16-.08.41.08.41.08.57.74.73.41.73.41.16-.08.33.08.33.08l.24.41c-8.8-2.85-21.42.81-21.42.81a.76.76,0,0,0,0-.81c-.08-.41-.24-.41-.24-.41a.16.16,0,0,1,.16-.24c.16-.08.08-.41.08-.41a1.72,1.72,0,0,0-.65,0c-.41,0-.33.24-.33.24a.9.9,0,0,1-.32.57,2.09,2.09,0,0,0-.33.74c-.08.4.57.73.57.73-.24,0-4.07,1.87-4.07,1.87A27.53,27.53,0,0,1,.65,32.49,28.38,28.38,0,0,1,3.18,31Zm2.6,3.83a1.55,1.55,0,0,0,.33.73.84.84,0,0,1,.24.49.58.58,0,0,0,.25.24l.49.08s.24-.08.24-.16v-.08l-.41-.57-.24-.41-.49-.41-.08-.16.08.65-.41-.4Zm.49-.66s-.08.57.16.74a.66.66,0,0,0,.41,0l.25-.25A1.06,1.06,0,0,0,6.76,34,1.11,1.11,0,0,0,6.35,34l.08.24L6.19,34l.08.16Z"/>
        <path class="cls-1" d="M67.76,26.31h1.63c1.79,0,3.91.24,3.91,2.36,0,1.95-2,2.28-3.91,2.28H67.84l-.08-4.64Zm-5.21,8.38h8.3c3.5,0,7.66-1,7.66-5.62,0-2.44-1.39-3.82-4-4.31v-.08C76.8,23.94,78,22.56,78,20c0-3.42-2.77-5-6.43-5.13h-9V34.69Zm5.21-16h1.55c1.71,0,3.42.16,3.42,2,0,1.62-1.71,2.11-3.42,2.11H67.84l-.08-4.07Zm23,8.06H85.84l2.52-7.65h.08l2.28,7.65Zm-13,7.9H83l1.55-4.15h7.32l1.47,4.15h5.78L91.62,14.82H85.19l-7.5,19.87ZM99.52,14.82h6.68L113,28.18l-.08-13.36h4.72V34.69h-6.52l-6.92-13.6-.08,13.6H99.52V14.82ZM135,34.94a30.41,30.41,0,0,1-5,.32c-5.29,0-11.24-2.77-11.24-10.18,0-6.84,4.81-10.91,11.32-10.91a18.91,18.91,0,0,1,4.81.65v4.4a15,15,0,0,0-4.65-.49c-3.74,0-6.1,2.69-6.1,6.35,0,3.91,2.68,6.19,6.59,6.19A39.4,39.4,0,0,0,135,31v4Zm5.78-10.18c0-3.59,1.3-6.6,4.48-6.6s4.48,3,4.48,6.6c0,3.42-1.3,6.59-4.48,6.59s-4.48-3.09-4.48-6.59Zm-5.37,0c0,6.59,3.42,10.67,9.85,10.67s9.85-4.16,9.85-10.67-3.34-10.67-9.85-10.67-9.85,4.07-9.85,10.67Zm63.44-.41-5.7-9.53h6.1l3.34,6.68L206,14.82h5.78l-5.86,9.53,6.35,10.34H206l-3.74-7.16-3.75,7.16h-5.95l6.36-10.34Zm18-5.62h-4.81V14.82H227v3.91h-4.8v15.8h-5.29Zm-25.58-.08h-8.22v4.07h8.14v3.75h-8.14V31h9v3.74H177.87V20.36l-5.62,14.33h-5.46L161.33,19.3V34.69h-5V14.82h9.12l4.39,14.34,4.81-14.34h17.1l-.08,3.83Z"/>
        <polygon class="cls-1" points="20.03 3.6 22.72 3.6 22.72 7.36 20.03 3.6"/>
      </g>
    </g>
  </g>
</svg>
