<svg xmlns="http://www.w3.org/2000/svg" viewBox="0 0 197.45 197.78">
  <defs>
    <style>
      .cls-1 {
        fill: #bc955b;
      }
    </style>
  </defs>
  <g id="Capa_2" data-name="Capa 2">
    <g id="Capa_1-2" data-name="Capa 1">
      <g>
        <g>
          <path class="cls-1" d="M82.11,197.78c-4.66-.24-9.32,0-13.76-.84-7.29-1.4-12.37-8.2-12.39-15.63,0-11.17-.09-22.35,0-33.52a80.34,80.34,0,0,1,1.13-9.23,4.13,4.13,0,0,0-.94-.2c-9.73.06-19.48-.2-29.18.3S8.31,147.32,7.17,157.07a106.15,106.15,0,0,0-.08,20.48c.5,6.4,6.15,11.69,12.62,12.87V154.83h6.53v36h29.6v6.55a7.25,7.25,0,0,1-.88.12c-11.1,0-22.21.18-33.31-.09C9.85,197.15.08,186.84,0,175.07c0-4.73,0-9.46,0-14.19.06-15.69,13.17-29,28.86-29.18,9.12-.11,18.24-.27,27.34.1,3.28.14,5.14-.62,7.24-3.14,5.7-6.85,13.31-10.09,22.22-10.14,8.64,0,17.27-.07,25.91,0a29,29,0,0,1,24.16,12.19,2.43,2.43,0,0,0,2.86,1.19,19.86,19.86,0,0,1,4.09-.22q12.34,0,24.68,0c17,.05,30,13.08,30.07,30.06,0,4.39,0,8.77,0,13.16-.05,11.94-9.75,22.26-21.66,22.56-11.09.27-22.2.08-33.31.09a6.84,6.84,0,0,1-.85-.13V191h29.48V154.81h6.52v35.75a16.19,16.19,0,0,0,11.95-9.89,11,11,0,0,0,1.05-4.15c0-6.63.59-13.39-.46-19.87-1.75-10.73-10.83-17.93-22-18.26-8.84-.25-17.68-.06-26.53,0a8.24,8.24,0,0,0-1.31.19c2.34,14.06.81,28.16,1.13,42.2.22,9.41-6.64,16.42-16,16.78-3.34.12-6.69,0-10.14,0V144.94h6.41v45.7c8,1.35,13.22-3,13.22-10.86,0-10.43.05-20.85,0-31.27a23,23,0,0,0-18.46-22.83,16.22,16.22,0,0,0-3.46-.43c-9.73,0-19.48-.36-29.18.18-12,.68-20.86,10.07-21.19,22.1-.3,11.24-.17,22.49,0,33.73a9.71,9.71,0,0,0,10,9.64h3.09V145h6.47Z"/>
          <path class="cls-1" d="M151.24,54.88q5.85-5.79,11.68-11.58c2.46-2.46,2.46-3.95,0-6.41q-6.17-6.18-12.35-12.37c-2.2-2.19-3.73-2.18-6,0q-5.4,5.37-10.76,10.76c-.65.65-1.15,1.25-2.23.57a63,63,0,0,0-19.74-8.08V11.92c0-4.39-.86-5.23-5.33-5.23q-8.22,0-16.45,0c-3.45,0-4.54,1.11-4.55,4.56V27.8a67.53,67.53,0,0,0-19.93,8.08c-.41.24-1.52-.17-2-.62-3.6-3.48-7.11-7-10.66-10.57-2.41-2.4-3.87-2.4-6.25,0q-6.27,6.24-12.51,12.5c-2.06,2.08-2.07,3.73,0,5.81,4,4,8,7.94,12,12A47.58,47.58,0,0,0,43.42,60q-2.79,6.81-5.23,13.76c-.49,1.42-1,2.08-2.62,2-4.86-.13-9.73-.06-14.59,0-3.44,0-4.51,1.11-4.52,4.59,0,5.69,0,11.38,0,17.07,0,3,.46,3.68,3.19,4.78v6.3a9.43,9.43,0,0,1-9.73-8.93c-.11-7.12-.12-14.26,0-21.38.08-4.87,4.59-9,9.69-9.07,4.24-.07,8.48,0,12.57,0l5.54-13.21c-2.63-2.63-5.45-5.42-8.24-8.24-4.74-4.77-4.74-10.45,0-15.2q6.38-6.42,12.79-12.8c4.61-4.57,10.48-4.6,15.13-.06,2.5,2.44,5,4.9,7.4,7.43a1.79,1.79,0,0,0,2.46.41c3.36-1.52,6.74-3,10.19-4.29C78.6,22.74,79,22.28,79,21c-.08-3.7,0-7.4,0-11.1A9.81,9.81,0,0,1,88.72.05q10-.11,19.94,0a9.81,9.81,0,0,1,9.8,10c0,3.63,0,7.26,0,10.9a1.92,1.92,0,0,0,1.5,2.2c3.52,1.31,7,2.8,10.39,4.35a1.67,1.67,0,0,0,2.28-.4c2.43-2.52,4.91-5,7.4-7.43,4.7-4.63,10.56-4.6,15.27.09q6.42,6.38,12.8,12.8c4.61,4.65,4.59,10.37-.06,15.06-2.8,2.82-5.63,5.6-8.23,8.17,1.67,4.25,3.2,8.27,4.88,12.22a2.37,2.37,0,0,0,1.8,1.06c3.63.1,7.26,0,10.89.06a9.84,9.84,0,0,1,10.2,10.24c0,6.58,0,13.16,0,19.75a9.52,9.52,0,0,1-9.72,9.43v-6.41c2.64-.49,3.22-2.39,3.18-4.84-.07-5.76,0-11.52,0-17.28,0-3-1.21-4.22-4.25-4.24-5.07,0-10.15,0-15.22,0a1.74,1.74,0,0,1-2.07-1.61,60.52,60.52,0,0,0-7.59-18.07C151.65,55.8,151.51,55.42,151.24,54.88Z"/>
          <path class="cls-1" d="M59.1,88.85H52.56c.55-16.19,7-29.22,20.45-38.07,15.86-10.45,32.56-10.89,49.09-1.52s23.18,27.1,22.54,39.55h-6.38c-.48-12.44-5.23-22.83-15-30.7a38.12,38.12,0,0,0-25.11-8.6C77.69,49.81,59.83,65.83,59.1,88.85Z"/>
          <path class="cls-1" d="M98.7,115.26a19.77,19.77,0,1,1,19.77-19.61A19.61,19.61,0,0,1,98.7,115.26Zm-.13-6.63a13.12,13.12,0,1,0-13-13.15A13.19,13.19,0,0,0,98.57,108.63Z"/>
          <path class="cls-1" d="M42.63,128.43c-11.21-.11-19.7-9-19.58-20.42.11-10.53,9.28-19.25,20.1-19.12s19.5,9.19,19.37,20.46C62.4,119.89,53.38,128.53,42.63,128.43Zm.13-6.64a13.12,13.12,0,1,0-13.13-13A13.2,13.2,0,0,0,42.76,121.79Z"/>
          <path class="cls-1" d="M154.57,128.43a19.77,19.77,0,1,1,19.83-19.35A19.62,19.62,0,0,1,154.57,128.43Zm-.09-6.64a13.12,13.12,0,1,0-13-13.17A13.19,13.19,0,0,0,154.48,121.79Z"/>
        </g>
        <path class="cls-1" d="M85.73,191h26v6.44h-26Z"/>
      </g>
    </g>
  </g>
</svg>
