<svg xmlns="http://www.w3.org/2000/svg" viewBox="0 0 178.91 158.47">
  <defs>
    <style>
      .cls-1 {
        fill: #fff;
      }
    </style>
  </defs>
  <g id="Capa_2" data-name="Capa 2">
    <g id="Capa_1-2" data-name="Capa 1">
      <g>
        <path class="cls-1" d="M161.84,130.76h10.28c5,0,7.71,3.52,6.5,8.36a25.8,25.8,0,0,1-21.25,18.95,36.26,36.26,0,0,1-4.65.36c-39.84,0-79.68.1-119.51,0-11.2,0-19.59-5.2-24.48-15.5a22.63,22.63,0,0,1-1.41-4.43,6.07,6.07,0,0,1,6-7.69c3.53-.05,7.06,0,10.85,0v-2.23c0-19.26.05-38.52-.07-57.79,0-2.58-.89-5.15-1.29-7.73-1.08-6.92-2.14-13.84-3.14-20.77a1.59,1.59,0,0,0-1.5-1.61c-4.61-1-9.22-2.05-13.81-3.14C1.72,36.86.28,35.34,0,32.87S1,28.78,3,27.6Q25.75,14.65,48.44,1.68A11.87,11.87,0,0,1,57.26.32Q82.63,6,108,11.65c2.49.55,4.34,1.78,4.81,4.43s-.65,4.32-3.4,5.92l-5.75,3.32a2.33,2.33,0,0,0-.28.33c2.09,3,4.23,6,6.42,9l1.48-.78c1.74-.9,3.12-.85,4.08.8,1.82,3.14,4.42,3.64,7.8,3.56,9.41-.21,18.83-.08,28.25-.07,6.44,0,10.42,4,10.42,10.43v82.14Zm-19.19-13.69V57.35H100.36c-1.63,4.1-2.89,5.84-5.62,7a127.19,127.19,0,0,1-41,9.82c-3.45.24-6.91.34-10.34.5v42.41Zm-130,19.42a15.17,15.17,0,0,0,3.26,8c4.69,6.19,11.15,8.56,18.69,8.56H151.38c.72,0,1.44,0,2.16-.06,8.6-.65,15.19-4.38,18.83-12.49a33,33,0,0,0,1.24-4Zm143.72-5.82c0-.51.06-.86.06-1.21q0-40.43,0-80.84c0-3.32-1.63-4.91-5-4.92q-13.5,0-27,0a11.37,11.37,0,0,0-1.39.17c3.11,4.11,3.91,4.54-.32,8h21.75c3.15,0,3.87.73,3.87,4q0,31.41,0,62.84c0,3.34-.79,4.14-4.11,4.14H41.92c-3.4,0-4.23-.83-4.23-4.26V74.39l-7.91-.74v57ZM6,32.26C23.14,36.1,39.82,39.82,56.5,43.59a7.45,7.45,0,0,0,5.66-1C68.54,39,75,35.34,81.35,31.69l9.85-5.64c-.72-.21-1.15-.38-1.61-.47l-17.81-3.3c-1.82-.34-3-1.71-2.7-3.21.3-1.67,1.72-2.57,3.67-2.2,8.11,1.51,16.22,3.05,24.33,4.55a3.65,3.65,0,0,0,2.09,0c2.52-1.32,5-2.79,7.78-4.4-17.24-3.85-34-7.59-50.83-11.35a7.16,7.16,0,0,0-5.32,1q-19.17,11-38.38,21.89Zm85.43.09c-1,.51-1.63.87-2.31,1.26-8,4.56-16,9.07-24,13.71a13.37,13.37,0,0,1-10.17,1.6c-7.69-1.77-15.38-3.49-23.08-5.21-2.11-.48-4.24-.91-6.35-1.36a3.36,3.36,0,0,0-.13.63c1.1,7.4,2.16,14.8,3.32,22.19a4,4,0,0,0,3.65,3.23c1.61.18,3.22.31,4.84.38a134.68,134.68,0,0,0,24.74-1A123.33,123.33,0,0,0,92.1,59.46c2.25-.94,3.06-2.64,2.67-5.07-.47-3-.89-5.92-1.34-8.87C92.78,41.21,92.12,36.91,91.42,32.35ZM98.71,43.7l1.22,8h8.38c-1-2.54-2-4.92-3-7.26a1.63,1.63,0,0,0-1.22-.72C102.45,43.65,100.78,43.7,98.71,43.7Zm6.65-5.77-7.19-10c-.64,1-1.48,1.68-1.43,2.29.24,2.65.74,5.27,1.12,7.73ZM110,41.08l3.75,9.26,4.93-2.9-6.27-7.77Z"/>
        <path class="cls-1" d="M132.39,107.19a25.54,25.54,0,0,1,0-2.81,2.63,2.63,0,0,1,2.68-2.61,2.55,2.55,0,0,1,2.79,2.47,20.65,20.65,0,0,1,.05,3.77,4.65,4.65,0,0,1-5,4.68q-6.28,0-12.57,0c-2,0-3.33-1-3.4-2.67s1.25-2.8,3.42-2.82C124.28,107.17,128.21,107.19,132.39,107.19Z"/>
        <path class="cls-1" d="M109.12,112.76a9.66,9.66,0,0,1-2.1-.26,2.54,2.54,0,0,1-1.8-2.93,2.4,2.4,0,0,1,2.34-2.29,19.29,19.29,0,0,1,3,0,2.55,2.55,0,0,1,2.61,2.62,2.71,2.71,0,0,1-2.65,2.81c-.47,0-1,0-1.43,0Z"/>
        <path class="cls-1" d="M92.93,147.37c-3.59,0-7.19,0-10.78,0-2.17,0-3.48-1.09-3.44-2.77s1.33-2.69,3.53-2.69c7.31,0,14.61,0,21.91,0,2.49,0,4,2.19,2.74,4a4.05,4.05,0,0,1-2.83,1.38C100.35,147.46,96.64,147.37,92.93,147.37Z"/>
      </g>
    </g>
  </g>
</svg>
