<svg xmlns="http://www.w3.org/2000/svg" viewBox="0 0 237.56 237.65">
  <defs>
    <style>
      .cls-1 {
        fill: #fff;
      }
    </style>
  </defs>
  <g id="Capa_2" data-name="Capa 2">
    <g id="Capa_1-2" data-name="Capa 1">
      <g>
        <path class="cls-1" d="M124.81,0c4,.93,8.2,1.49,12.09,2.85,23,8,36.78,24.18,40.59,48.12,2.83,17.8-2.32,33.77-14.05,47.53-.24.28-.48.58-1,1.17,4,.83,7.81,1.63,11.61,2.39,6.49,1.3,13,2.61,19.51,3.8a5.9,5.9,0,0,0,2.77-.7c1.83-.68,3.62-2,5.44-2.08,9.35-.22,18.71-.16,28.06-.08a7.59,7.59,0,0,1,7.67,7.88q0,29.7,0,59.38a7.71,7.71,0,0,1-7.89,7.93c-9.27,0-18.55.09-27.83-.07a8.31,8.31,0,0,1-4.81-1.79,4.15,4.15,0,0,0-4.12-1c-3.22.77-6.59,1-9.69,2.11-2.75,1-5.22,2.72-7.76,4.09,1.72,8.45-.32,13.12-7.46,17.51a2,2,0,0,0-.82,1.56c1.06,8.53-1,12.56-8.36,16.67,0,2.57.39,5.08-.07,7.43a13.62,13.62,0,0,1-19.39,9.92c-4.07-1.85-8.05-3.92-12.07-5.88-.4-.19-.83-.34-1.25-.51-4.94,11.83-20,12.64-26.2,1.43-9.83,1.79-13.68.34-18.5-7.08-7.89,2.65-14.13.41-18.1-6.26-3.34,0-6.39.5-9.22-.09-8.3-1.73-12.76-9.94-10-18,1.36-4,2.91-7.94,4.5-12.24-2.13-.84-4.17-1.69-6.25-2.41-.36-.12-.9.33-1.37.49-2,.66-4,1.82-6,1.87-8.11.22-16.24-.12-24.35.17-4.83.18-8.4-1.2-10.52-5.67v-64c2.12-4.47,5.68-5.85,10.51-5.68,8.26.29,16.54,0,24.8.19,2,.06,3.91,1.4,5.89,2.11a6.38,6.38,0,0,0,2.79.77c5.79-.89,11.55-1.94,17.31-3,7.16-1.26,14.31-2.54,21.8-3.87l-1.46-1.27C65,91.74,57.47,73.92,59.86,52.24a58.68,58.68,0,0,1,42.79-50C106,1.3,109.38.73,112.75,0Zm-6.13,7.58c-3.58.48-7.22.73-10.75,1.49A51.21,51.21,0,0,0,67.69,64.45c1.91,17.68,10.77,30.88,26.1,39.77a6.14,6.14,0,0,0,2.83.45c4.23,0,8.47-.2,12.69,0a4.46,4.46,0,0,0,3.71-1c6.78-6,14.71-9.1,23.77-8.48a113.92,113.92,0,0,1,13.44,2.16,4.38,4.38,0,0,0,4.51-1.26c11.92-12.23,17.2-26.85,14.94-43.74A51.7,51.7,0,0,0,118.68,7.58Zm10,212.94c4.7,2.27,9.12,4.44,13.57,6.54,3.47,1.63,6.81.59,8.26-2.49s.21-6.34-3.22-8c-3.18-1.59-6.41-3.06-9.59-4.63-2.63-1.29-3.56-3.42-2.53-5.61s3.32-2.85,5.93-1.64c3.15,1.47,6.25,3,9.39,4.5,3.57,1.67,7.08.64,8.56-2.43s.17-6.37-3.45-8.15c-3.18-1.58-6.4-3.07-9.59-4.61-2.92-1.41-4-3.6-2.85-5.88s3.44-2.73,6.41-1.32c3.41,1.63,6.78,3.34,10.23,4.87a5.7,5.7,0,0,0,7.85-3.11c1.19-3,0-6-3.07-7.56-3.36-1.72-6.81-3.28-10.2-4.95-2.47-1.22-3.39-3.35-2.45-5.49s3.33-2.88,5.89-1.7c3.43,1.59,6.81,3.29,10.25,4.84a5.84,5.84,0,0,0,7.92-2.56,5.76,5.76,0,0,0-2.73-7.86c-14.45-7.49-28.95-14.9-43.42-22.35a4.1,4.1,0,0,0-5.09.71l-2.37,2.22q-10,9.48-20.06,19c-4.15,3.94-9,5.7-14.65,4.44-12.26-2.73-16.65-16.85-8.25-26.33,7.89-8.92,15.85-17.77,23.77-26.66.48-.54.92-1.11,1.37-1.67l-.3-.68c-20.29,2.67-40.3,7-60.63,10.25v2.73q0,21.69,0,43.38c0,2.38-.7,5.33.44,7s4.18,2,6.32,3c1.34.65,2.18.28,3.24-.63a13.62,13.62,0,0,1,18.37.24c.78.72,1.47,1.54,2.17,2.28,9.19-4.78,14.95-3.29,21.31,5.49a13.69,13.69,0,0,1,13.42,1.23c4.26,2.82,6,7.09,6.2,12.05,5.88-.34,10.47,1.66,13.58,6.55S131,215.42,128.65,220.52ZM193.88,114.3c-.79-.21-1.45-.42-2.13-.56-16.24-3.25-32.51-6.35-48.71-9.79-11.44-2.43-20.73.56-28.42,9.42-9.57,11-19.42,21.83-29.12,32.74-3.26,3.67-3.27,8.09-.13,11.21s7.69,3.07,11.36-.37q11-10.32,22-20.66c4.73-4.47,9.63-5.2,15.44-2.22,13.51,6.94,26.95,14,40.56,20.76,6,3,9.79,7.09,10.06,14.08l9.14-1.92Zm8.2,55.84h27.39V111.08H202.08Zm-166.64,8V119H8.05V178.1Zm52.83,13.83a5.92,5.92,0,0,0-4.57-6.21,5.73,5.73,0,0,0-6.59,3.48c-2.45,6.23-4.76,12.51-7.06,18.8a5.78,5.78,0,0,0,4.85,7.64,5.6,5.6,0,0,0,6-3.46c2.49-6.21,4.82-12.49,7.17-18.75A5.6,5.6,0,0,0,88.27,191.93Zm18.49,7.25c.07-3.46-1.74-5.74-4.73-6.41a5.69,5.69,0,0,0-6.48,3.65c-2.39,6.09-4.68,12.22-6.93,18.36a6.09,6.09,0,0,0-.3,2.93,5.84,5.84,0,0,0,11.31,1c2.31-5.95,4.52-11.95,6.74-17.94A10.72,10.72,0,0,0,106.76,199.18Zm-38.43-10.3c0-3.48-1.92-5.87-4.83-6.44a5.89,5.89,0,0,0-6.43,3.81c-1.86,4.72-3.68,9.47-5.4,14.24-1.24,3.42.22,6.72,3.27,7.83,3.23,1.18,6.34-.36,7.73-3.91,1.76-4.51,3.46-9,5.16-13.6A15,15,0,0,0,68.33,188.88Zm54.19,24.55c0-3.41-1.91-5.61-4.82-6.23a5.63,5.63,0,0,0-6.37,3.45c-1.45,3.48-2.77,7-4.06,10.57s.14,6.86,3.3,8,6.32-.33,7.73-3.92c1.3-3.29,2.52-6.62,3.74-9.94A14.79,14.79,0,0,0,122.52,213.43Z"/>
        <path class="cls-1" d="M134.58,46.92c0,2.77-1.41,4.5-3.79,4.57s-3.82-1.44-4.13-4.29c-.44-4.23-3.28-7.15-7.24-7.44a7.71,7.71,0,0,0-8.32,6.16A7.82,7.82,0,0,0,118,55.3a27.33,27.33,0,0,1,6.13,1.07,15.51,15.51,0,0,1,10.4,14c.19,7.07-3.37,12.93-9.64,15.43-1.67.66-2.27,1.45-2.1,3.17a9.69,9.69,0,0,1-.27,3.21,3.62,3.62,0,0,1-3.73,2.88A3.74,3.74,0,0,1,115,92.27c-.07-.22-.23-.47-.19-.66.91-4.06-1.65-5.49-4.71-7.24-4.54-2.6-6.89-7-7.11-12.29-.11-2.85,1.22-4.58,3.56-4.77s4,1.39,4.34,4.31c.42,4.19,3.29,7.14,7.24,7.43a7.72,7.72,0,0,0,8.33-6.16,7.82,7.82,0,0,0-6.92-9.4,27.89,27.89,0,0,1-6.13-1.05,15.54,15.54,0,0,1-10.42-14c-.2-7.06,3.37-13,9.63-15.45,1.63-.65,2.31-1.4,2.12-3.15a9.16,9.16,0,0,1,.26-3.21,3.63,3.63,0,0,1,3.71-2.91,3.75,3.75,0,0,1,3.83,2.77c.08.22.24.47.2.66-.91,4.18,1.76,5.63,4.9,7.36C132,37,134.53,42.09,134.58,46.92Z"/>
      </g>
    </g>
  </g>
</svg>
