<svg xmlns="http://www.w3.org/2000/svg" viewBox="0 0 167.09 166.69">
  <defs>
    <style>
      .cls-1 {
        fill: #fff;
      }
    </style>
  </defs>
  <g id="Capa_2" data-name="Capa 2">
    <g id="Capa_1-2" data-name="Capa 1">
      <path class="cls-1" d="M35.72,46.83V41.67H6.61c-4.25,0-6.6-2.32-6.61-6.5Q0,20.75,0,6.34C0,2.38,2.4,0,6.39,0H160.76c3.94,0,6.33,2.42,6.33,6.41q0,14.42,0,28.83c0,4.07-2.38,6.43-6.49,6.43H131.41v5.87c2.32.12,3.93,1.43,5.33,3.2,7.11,8.93,14.11,18,21.48,26.66,3,3.54,3.35,7.11,2.35,11.21A23.35,23.35,0,0,1,150.49,103a2.65,2.65,0,0,0-1.33,2.54q.06,27.15,0,54.31c0,4.6-2.23,6.81-6.86,6.81H24.69c-4.5,0-6.78-2.25-6.78-6.69q0-27.08,0-54.13a3.13,3.13,0,0,0-1.53-3C9.71,98.2,6.06,91.79,6,83.57A6.94,6.94,0,0,1,7.43,79.5Q19.12,64.65,31.06,50C32.11,48.74,33.89,48.06,35.72,46.83ZM12,29.64H155V12H12ZM35.81,154.7v-2.15q0-16.56,0-33.11c0-4,2.4-6.32,6.4-6.32q11.46,0,22.93,0c4.09,0,6.47,2.37,6.47,6.44v35.11h65.5v-5.84H84c-4.07,0-6.44-2.39-6.45-6.47V119.85q0-6.73,6.73-6.73h52.86v-5.9c-7.14-.12-13-3-17.82-8.11-5,5.14-10.79,8-17.93,8.06s-13-3-17.91-8c-5,5.19-10.85,8.07-18,8s-12.89-3-17.82-8.07a24.35,24.35,0,0,1-17.77,8.15V154.7ZM89.57,59.58c0,8.35-.34,16.54.1,24.69.39,7.45,7.27,12.17,14.49,10.61,5.74-1.23,10.11-7.44,8.87-12.71-.93-4-1.65-8-2.46-12q-1.08-5.31-2.13-10.6Zm-12.32,0c-3.88,0-7.85.06-11.81,0A2,2,0,0,0,63.13,61c-2.91,7.41-5.91,14.79-8.83,22.2a4.63,4.63,0,0,0-.27,2.3,11.89,11.89,0,0,0,11.51,9.73c5.59.06,11.25-4,11.58-9.54C77.63,77.1,77.25,68.43,77.25,59.53Zm-26.47,0c-3.7,0-7.18-.07-10.65,0a3.46,3.46,0,0,0-2.27,1.12Q28.35,72.4,19,84.23a3.25,3.25,0,0,0-.5,2.48,11.87,11.87,0,0,0,11.74,8.53C35.83,95,40.67,91,41.39,85.56a41.39,41.39,0,0,1,3-10.07c.84-2.12,1.71-4.24,2.56-6.36Zm70,0c.38,1.93.71,3.56,1,5.2,1.22,6.61,2.52,13.22,3.64,19.85,1,6,5.26,10.14,11.18,10.64a11.83,11.83,0,0,0,12-8.41,3,3,0,0,0-.28-2.35Q138.72,72.34,129,60.35a2.14,2.14,0,0,0-1.34-.78C125.43,59.49,123.2,59.53,120.73,59.53Zm16.44,65.62H89.66v11.68h47.51ZM47.83,47.53h71.4V41.8H47.83ZM59.55,154.71V125.17H47.84v29.54Z"/>
    </g>
  </g>
</svg>
