<svg xmlns="http://www.w3.org/2000/svg" viewBox="0 0 190.4 177.88">
  <defs>
    <style>
      .cls-1 {
        fill: #fff;
      }
    </style>
  </defs>
  <g id="Capa_2" data-name="Capa 2">
    <g id="Capa_1-2" data-name="Capa 1">
      <g>
        <path class="cls-1" d="M152.31,91.94h6.36c0-1.13,0-2.17,0-3.21a2.94,2.94,0,0,1,3-3q12.8-.06,25.58,0c2,0,3.11,1.3,3.12,3.52q0,11.11,0,22.21,0,16.86,0,33.71c0,3-1,4-4,4h-23.6c-3.12,0-4.07-1-4.08-4.17,0-1.59,0-3.17,0-4.76a2.74,2.74,0,0,0-.2-.58c-3.2,0-6.48,0-9.76,0-.29,0-.74.17-.82.38-.67,1.68-1.88,3.43-1.77,5.09.38,6.17-5.12,12.32-13.5,9.9-.31-.09-.61-.21-.89-.3-3.89,3.82-5.71,4.41-11.44,3.75-3,5.64-6.25,7.27-12.67,6.33-.15.25-.32.52-.47.81a9.81,9.81,0,0,1-12.23,5.32,2.68,2.68,0,0,0-2.86.48c-1.94,1.58-4,3.06-6,4.51-4.77,3.35-11.54,2.27-14.56-2.45a27.31,27.31,0,0,1-2-4.92c-2.24-.43-4.9-.43-7-1.49s-3.53-3.15-5.78-5.28c-2.83.34-6.49.27-9.39-2.63a9.66,9.66,0,0,1-2.89-6.69,10,10,0,0,1-7.7-4.09,9.38,9.38,0,0,1-1.27-8.61H31.73c0,.91,0,1.88,0,2.84-.07,2.15-1.19,3.35-3.3,3.36q-12.58,0-25.18,0C1,146,0,144.69,0,142.16q0-19.73,0-39.46c0-5.48,0-11,0-16.46,0-2.63,1.09-3.72,3.72-3.72H27.52c3.29,0,4.2.92,4.21,4.24V88.7h6.35V4.37C38.08.9,39,0,42.36,0H148c3.39,0,4.27.91,4.27,4.38V91.94ZM44.51,88.8c4.4.14,8.55.36,12.41-1.77a7.68,7.68,0,0,1,3.2-.93c4.28-.22,8.56-.31,12.85-.41a24.47,24.47,0,0,1,11.67,2.56c2.74,1.39,5.28,3.16,8,4.83L100,87.62a24.46,24.46,0,0,1,15.47-5.12c4.3.08,8.59,0,12.89,0a24,24,0,0,1,14.88,5.09c.87.66,1.68,1.41,2.65,2.23V6.49H44.51ZM31.85,95.2v38.09a13.1,13.1,0,0,1,1.67,0A15.4,15.4,0,0,0,47,129c2.58-2.49,6-2.58,9.34-1.72,4.58,1.19,6.74,4.52,7.18,8.57,2.1,1,4.14,1.52,5.68,2.71s2.09,3.47,3.61,4.23,3.81-.1,5.61.34c4.66,1.13,6.9,4.49,7.36,9.13l6.24.29-4.19-3.63c-1.35-1.16-2.74-2.29-4.06-3.49-1.57-1.43-1.77-3.33-.55-4.73a3.15,3.15,0,0,1,4.6-.23c6.2,5.24,12.35,10.54,18.53,15.82a17,17,0,0,0,2.48,2,3.68,3.68,0,0,0,4.78-1c1-1.52.75-2.77-1-4.28q-9.37-8.27-18.77-16.49c-2.08-1.83-2.46-3.72-1.08-5.27s3.2-1.4,5.22.33c4.37,3.73,8.76,7.44,13.09,11.23,3.13,2.74,6.14,5.62,9.26,8.36,2.25,2,4.55,1.67,6-.66l-13.25-11.92c-4.47-4-9-8-13.41-12.08-2.08-1.91-1.68-4.75.71-5.64a3.53,3.53,0,0,1,3.78,1q8.94,8,17.92,15.95c3.55,3.17,7.15,6.28,10.57,9.58,2,1.89,4.26,2.43,5.89.89s1.35-3.71-.8-5.63q-15.06-13.48-30.14-27c-4-3.57-4-3.54-8.9-1.13-3.06,1.52-6,3.21-9.69,3-4.29-.28-7.94-2.61-9.26-6.5A9.6,9.6,0,0,1,83.2,100.2c1.21-1,2.45-1.88,3.9-3-1.4-.92-2.51-1.75-3.7-2.41C76.65,91.08,69.33,92,62.1,92.27a4.76,4.76,0,0,0-2.1.52c-4.62,2.47-9.6,2.55-14.65,2.44C40.87,95.13,36.39,95.2,31.85,95.2Zm126.74,3.18c-4,0-7.75-.08-11.51,0a4.72,4.72,0,0,1-4.34-2.13c-3-4-6.9-6.64-11.89-7.06-4.6-.39-9.24-.21-13.85-.38a21.08,21.08,0,0,0-14.32,4.73c-5,4-10.23,7.72-15.34,11.58-1.18.89-2,2-1.47,3.57A3.14,3.14,0,0,0,89.36,111a9.88,9.88,0,0,0,3.4-.79c3.23-1.5,6.38-3.16,9.57-4.75,2.49-1.24,3.29-1.13,5.3.72q12,11,24,22L142,137.65c.84-4.49,4-4.54,7.32-4.39,3.07.14,6.16,0,9.29,0ZM25.24,139.56V89H6.46v50.6Zm158.67,3.16V92.19h-18.8v50.53ZM45.47,146a11.63,11.63,0,0,0,2.3-1.08c2.47-1.75,4.88-3.58,7.28-5.42,2.12-1.61,2.57-3.2,1.43-4.83A4,4,0,0,0,51,134c-2.79,2-5.52,4.05-8.23,6.13a3,3,0,0,0-1.27,3.61C42.08,145.37,43.32,145.92,45.47,146Zm34.74,25.38a4.89,4.89,0,0,0,1.72-.55c3-2.19,6.12-4.36,9-6.75a3,3,0,0,0-1.34-5.2,5.79,5.79,0,0,0-3.87.7c-2.76,1.77-5.32,3.87-7.94,5.87-1.23.94-2,2.1-1.35,3.75S78.3,171.33,80.21,171.41Zm-12.7-9.52a4.89,4.89,0,0,0,1.72-.55c3-2.19,6.11-4.39,9-6.8A3.27,3.27,0,0,0,79,151.6a4.69,4.69,0,0,0-2.58-2.32c-1.7-.63-3.17.38-4.47,1.48-2.55,2.17-5.15,4.29-7.6,6.57a2.82,2.82,0,0,0-.6,2.35C64.18,161.32,65.59,161.81,67.51,161.89Zm-12.84-6a33.88,33.88,0,0,0,3.75-2.3c2.35-1.88,4.57-3.95,6.9-5.87,1.67-1.37,1.61-3.41-.31-4.42a4,4,0,0,0-4.49.23q-4.16,3-8.24,6.16A3,3,0,0,0,51,153.32C51.62,154.91,52.86,155.45,54.67,155.9Zm43.26,1.62c.15,2.6.29,5,.43,7.47a3.06,3.06,0,0,0,3.08-2.69C101.88,159.56,99.11,159.13,97.93,157.52Z"/>
        <path class="cls-1" d="M95.3,12.7a31.62,31.62,0,0,1,31.63,32c0,17.54-14.28,31.51-32.14,31.48A31.73,31.73,0,0,1,95.3,12.7Zm0,6.34a25.39,25.39,0,1,0,25.22,25.74A25.61,25.61,0,0,0,95.35,19Z"/>
        <path class="cls-1" d="M77.36,47l3.88-5.12,10.44,7.79,17.06-17.08L113,37.38a2.16,2.16,0,0,1-.36.47q-9,9-17.93,18c-1.31,1.31-2.84,1.93-4.42.8C86,53.51,81.75,50.25,77.36,47Z"/>
      </g>
    </g>
  </g>
</svg>
